<svg id="visual" viewBox="0 0 900 600" width="900" height="600" xmlns="http://www.w3.org/2000/svg" xmlns:xlink="http://www.w3.org/1999/xlink" version="1.1"><rect x="0" y="0" width="900" height="600" fill="#121212"></rect><path d="M0 348L75 348L75 272L150 272L150 341L225 341L225 330L300 330L300 358L375 358L375 294L450 294L450 319L525 319L525 403L600 403L600 414L675 414L675 313L750 313L750 361L825 361L825 274L900 274L900 330L900 601L900 601L825 601L825 601L750 601L750 601L675 601L675 601L600 601L600 601L525 601L525 601L450 601L450 601L375 601L375 601L300 601L300 601L225 601L225 601L150 601L150 601L75 601L75 601L0 601Z" fill="#7f7b7b"></path><path d="M0 408L75 408L75 463L150 463L150 416L225 416L225 393L300 393L300 436L375 436L375 405L450 405L450 406L525 406L525 451L600 451L600 443L675 443L675 370L750 370L750 452L825 452L825 408L900 408L900 451L900 601L900 601L825 601L825 601L750 601L750 601L675 601L675 601L600 601L600 601L525 601L525 601L450 601L450 601L375 601L375 601L300 601L300 601L225 601L225 601L150 601L150 601L75 601L75 601L0 601Z" fill="#a8a5a5"></path><path d="M0 450L75 450L75 469L150 469L150 479L225 479L225 494L300 494L300 447L375 447L375 491L450 491L450 505L525 505L525 412L600 412L600 483L675 483L675 505L750 505L750 445L825 445L825 516L900 516L900 426L900 601L900 601L825 601L825 601L750 601L750 601L675 601L675 601L600 601L600 601L525 601L525 601L450 601L450 601L375 601L375 601L300 601L300 601L225 601L225 601L150 601L150 601L75 601L75 601L0 601Z" fill="#d3d1d1"></path><path d="M0 576L75 576L75 493L150 493L150 510L225 510L225 550L300 550L300 554L375 554L375 547L450 547L450 576L525 576L525 548L600 548L600 551L675 551L675 525L750 525L750 526L825 526L825 546L900 546L900 548L900 601L900 601L825 601L825 601L750 601L750 601L675 601L675 601L600 601L600 601L525 601L525 601L450 601L450 601L375 601L375 601L300 601L300 601L225 601L225 601L150 601L150 601L75 601L75 601L0 601Z" fill="#ffffff"></path></svg>